P3
65 65
255
131 121 0 127 125 0 123 129 0 118 134 0 114 138 0 110 142 0 106 146 0 102 150 0 98 154 0 94 158 0 89 163 0 85 167 0 81 171 0 77 175 0 73 179 0 69 183 0 65 187 0 61 191 0 56 196 0 52 200 0 48 204 0 44 208 0 40 212 0 36 216 0 32 220 0 27 225 0 23 229 0 19 233 0 15 237 0 11 241 0 7 236 10 3 203 47 0 158 96 0 158 96 3 203 47 7 236 10 11 241 0 15 237 0 19 233 0 23 229 0 27 225 0 32 220 0 36 216 0 40 212 0 44 208 0 48 204 0 52 200 0 56 196 0 61 191 0 65 187 0 69 183 0 73 179 0 77 175 0 81 171 0 85 167 0 89 163 0 94 158 0 98 154 0 102 150 0 106 146 0 110 142 0 114 138 0 118 134 0 123 129 0 127 125 0 
154 98 0 150 102 0 145 107 0 140 112 0 135 117 0 130 122 0 125 127 0 121 131 0 116 136 0 111 141 0 106 146 0 101 151 0 97 155 0 92 160 0 87 165 0 82 170 0 77 175 0 73 179 0 68 184 0 63 189 0 58 194 0 53 199 0 48 204 0 44 208 0 39 213 0 34 218 0 29 223 0 24 228 0 20 232 0 15 237 0 10 227 15 4 177 72 0 110 143 0 110 143 4 177 72 10 227 15 15 237 0 20 232 0 24 228 0 29 223 0 34 218 0 39 213 0 44 208 0 48 204 0 53 199 0 58 194 0 63 189 0 68 184 0 73 179 0 77 175 0 82 170 0 87 165 0 92 160 0 97 155 0 101 151 0 106 146 0 111 141 0 116 136 0 121 131 0 125 127 0 130 122 0 135 117 0 140 112 0 145 107 0 150 102 0 
171 81 0 165 87 0 160 92 0 155 97 0 150 102 0 144 108 0 139 113 0 134 118 0 128 124 0 123 129 0 118 134 0 113 139 0 107 145 0 102 150 0 97 155 0 92 160 0 86 166 0 81 171 0 76 176 0 70 182 0 65 187 0 60 192 0 55 197 0 49 203 0 44 208 0 39 213 0 34 218 0 28 224 0 23 229 0 18 234 0 12 216 24 5 156 92 0 79 174 0 79 174 5 156 92 12 216 24 18 234 0 23 229 0 28 224 0 34 218 0 39 213 0 44 208 0 49 203 0 55 197 0 60 192 0 65 187 0 70 182 0 76 176 0 81 171 0 86 166 0 92 160 0 97 155 0 102 150 0 107 145 0 113 139 0 118 134 0 123 129 0 128 124 0 134 118 0 139 113 0 144 108 0 150 102 0 155 97 0 160 92 0 165 87 0 
175 77 0 170 82 0 164 88 0 159 93 0 153 99 0 148 104 0 143 109 0 137 115 0 132 120 0 127 125 0 121 131 0 116 136 0 111 141 0 105 147 0 100 152 0 95 157 0 89 163 0 84 168 0 78 174 0 73 179 0 68 184 0 62 190 0 57 195 0 52 200 0 46 206 0 41 211 0 36 216 0 30 222 0 25 227 0 20 230 2 12 201 40 5 135 113 0 56 197 0 56 197 5 135 113 12 201 40 20 230 2 25 227 0 30 222 0 36 216 0 41 211 0 46 206 0 52 200 0 57 195 0 62 190 0 68 184 0 73 179 0 78 174 0 84 168 0 89 163 0 95 157 0 100 152 0 105 147 0 111 141 0 116 136 0 121 131 0 127 125 0 132 120 0 137 115 0 143 109 0 148 104 0 153 99 0 159 93 0 164 88 0 170 82 0 
166 86 0 161 91 0 156 96 0 151 101 0 146 106 0 141 111 0 136 116 0 131 121 0 126 126 0 121 131 0 116 136 0 111 141 0 106 146 0 101 151 0 96 156 0 90 162 0 85 167 0 80 172 0 75 177 0 70 182 0 65 187 0 60 192 0 55 197 0 50 202 0 45 207 0 40 212 0 35 217 0 30 222 0 25 227 0 19 220 13 11 177 65 5 112 136 0 37 216 0 37 216 5 112 136 11 177 65 19 220 13 25 227 0 30 222 0 35 217 0 40 212 0 45 207 0 50 202 0 55 197 0 60 192 0 65 187 0 70 182 0 75 177 0 80 172 0 85 167 0 90 162 0 96 156 0 101 151 0 106 146 0 111 141 0 116 136 0 121 131 0 126 126 0 131 121 0 136 116 0 141 111 0 146 106 0 151 101 0 156 96 0 161 91 0 
148 104 0 143 109 0 139 113 0 134 118 0 130 122 0 126 126 0 121 131 0 117 135 0 112 140 0 108 144 0 103 149 0 99 153 0 95 157 0 90 162 0 86 166 0 81 171 0 77 175 0 72 180 0 68 184 0 63 189 0 59 193 0 55 197 0 50 202 0 46 206 0 41 211 0 37 215 0 32 220 0 28 224 0 24 226 2 16 196 40 9 148 96 4 89 160 0 23 231 0 23 231 4 89 160 9 148 96 16 196 40 24 226 2 28 224 0 32 220 0 37 215 0 41 211 0 46 206 0 50 202 0 55 197 0 59 193 0 63 189 0 68 184 0 72 180 0 77 175 0 81 171 0 86 166 0 90 162 0 95 157 0 99 153 0 103 149 0 108 144 0 112 140 0 117 135 0 121 131 0 126 126 0 130 122 0 134 118 0 139 113 0 143 109 0 
126 126 0 122 130 0 119 133 0 115 137 0 111 141 0 107 145 0 104 148 0 100 152 0 96 156 0 93 159 0 89 163 0 85 167 0 81 171 0 78 174 0 74 178 0 70 182 0 67 185 0 63 189 0 59 193 0 55 197 0 52 200 0 48 204 0 44 208 0 40 212 0 37 215 0 33 219 0 29 223 0 26 222 5 19 199 34 13 164 76 7 120 126 3 69 182 0 12 241 0 12 241 3 69 181 7 120 126 13 164 76 19 200 34 26 222 4 29 223 0 33 219 0 37 215 0 40 212 0 44 208 0 48 204 0 52 200 0 55 197 0 59 193 0 63 189 0 67 185 0 70 182 0 74 178 0 78 174 0 81 171 0 85 167 0 89 163 0 93 159 0 96 156 0 100 152 0 104 148 0 107 145 0 111 141 0 115 137 0 119 133 0 122 130 0 
109 143 0 106 146 0 103 149 0 99 153 0 96 156 0 93 159 0 90 162 0 87 165 0 84 168 0 81 171 0 77 175 0 74 178 0 71 181 0 68 184 0 65 187 1 62 190 1 59 192 1 55 196 1 52 199 1 49 202 2 46 204 3 43 205 4 39 206 7 35 208 9 32 208 12 28 208 16 25 204 23 21 194 37 16 173 63 11 141 101 6 101 147 2 55 196 0 6 247 0 6 247 2 55 196 6 101 147 11 141 101 16 174 63 21 195 37 25 205 22 29 209 15 32 209 12 35 209 9 39 207 6 43 206 4 46 204 2 49 202 2 52 199 1 55 196 1 59 193 1 62 190 1 65 187 0 68 184 0 71 181 0 74 178 0 77 175 0 81 171 0 84 168 0 87 165 0 90 162 0 93 159 0 96 156 0 99 153 0 103 149 0 106 146 0 
102 150 0 99 152 2 95 154 4 91 156 5 89 157 7 85 158 9 82 160 11 78 162 13 75 163 14 71 165 16 68 166 18 65 168 20 62 169 21 59 170 23 56 172 25 53 173 26 50 175 28 47 176 29 44 178 30 42 180 31 39 182 31 36 185 31 34 189 30 32 191 29 30 195 28 27 197 28 24 197 31 20 191 42 16 171 66 11 136 106 6 95 152 2 51 200 0 5 249 0 5 249 2 51 200 6 96 152 11 137 106 16 171 66 20 192 41 24 198 30 27 198 27 30 196 27 32 192 28 34 190 29 37 186 30 39 183 30 42 181 30 45 179 29 48 178 27 51 176 26 54 174 25 57 173 23 60 171 21 62 171 20 65 169 18 69 168 16 72 166 14 75 165 13 79 163 11 82 161 9 86 160 7 89 158 5 92 157 4 96 155 2 99 153 0 
109 143 0 106 146 0 102 150 0 99 153 0 96 156 0 93 159 0 90 162 0 87 165 0 84 168 0 81 171 0 78 174 0 75 177 0 72 180 0 69 183 0 66 186 0 63 189 0 60 192 0 57 195 1 54 198 1 51 201 1 48 203 1 45 206 1 41 210 1 38 213 1 35 216 1 32 219 1 29 222 2 26 221 5 20 198 35 13 153 86 8 106 140 3 57 194 0 7 247 0 7 247 3 57 193 8 106 140 13 153 86 20 198 34 26 222 5 29 222 2 32 219 1 35 216 1 38 213 1 41 210 1 45 206 1 48 203 1 51 201 1 54 198 1 57 195 0 60 192 0 63 189 0 66 186 0 69 183 0 72 180 0 75 177 0 78 174 0 81 171 0 84 168 0 87 165 0 90 162 0 93 159 0 96 156 0 99 153 0 102 150 0 106 146 0 
127 125 0 123 129 0 119 133 0 116 136 0 112 140 0 109 143 0 105 147 0 102 150 0 98 154 0 95 157 0 91 161 0 87 165 0 84 168 0 80 172 0 77 175 0 73 179 0 70 182 0 66 186 0 62 190 0 59 193 0 55 197 0 52 200 0 48 204 0 45 207 0 41 211 0 38 214 0 34 218 0 30 222 0 27 224 1 19 184 50 11 126 116 4 69 180 0 11 243 0 11 243 4 69 180 11 126 116 19 184 50 27 224 1 30 222 0 34 218 0 38 214 0 41 211 0 45 207 0 48 204 0 52 200 0 55 197 0 59 193 0 62 190 0 66 186 0 70 182 0 73 179 0 77 175 0 80 172 0 84 168 0 87 165 0 91 161 0 95 157 0 98 154 0 102 150 0 105 147 0 109 143 0 112 140 0 116 136 0 119 133 0 123 129 0 
151 101 0 146 106 0 142 110 0 138 114 0 134 118 0 129 123 0 125 127 0 121 131 0 117 135 0 112 140 0 108 144 0 104 148 0 100 152 0 95 157 0 91 161 0 87 165 0 83 169 0 78 174 0 74 178 0 70 182 0 66 186 0 61 191 0 57 195 0 53 199 0 49 203 0 44 208 0 40 212 0 36 216 0 31 221 0 26 213 14 15 148 89 7 82 165 0 14 239 0 14 239 7 82 165 15 148 89 26 213 14 31 221 0 36 216 0 40 212 0 44 208 0 49 203 0 53 199 0 57 195 0 61 191 0 66 186 0 70 182 0 74 178 0 78 174 0 83 169 0 87 165 0 91 161 0 95 157 0 100 152 0 104 148 0 108 144 0 112 140 0 117 135 0 121 131 0 125 127 0 129 123 0 134 118 0 138 114 0 142 110 0 146 106 0 
173 79 0 169 83 0 164 88 0 159 93 0 154 98 0 149 103 0 144 108 0 139 113 0 134 118 0 129 123 0 124 128 0 119 133 0 114 138 0 110 142 0 105 147 0 100 152 0 95 157 0 90 162 0 85 167 0 80 172 0 75 177 0 70 182 0 65 187 0 60 192 0 56 196 0 51 201 0 46 206 0 41 211 0 36 216 0 31 219 2 19 164 69 8 91 154 1 15 238 1 15 238 8 91 154 19 164 69 31 219 2 36 216 0 41 211 0 46 206 0 51 201 0 56 196 0 60 192 0 65 187 0 70 182 0 75 177 0 80 172 0 85 167 0 90 162 0 95 157 0 100 152 0 105 147 0 110 142 0 114 138 0 119 133 0 124 128 0 129 123 0 134 118 0 139 113 0 144 108 0 149 103 0 154 98 0 159 93 0 164 88 0 169 83 0 
188 64 0 183 69 0 177 75 0 172 80 0 167 85 0 161 91 0 156 96 0 151 101 0 145 107 0 140 112 0 135 117 0 130 122 0 124 128 0 119 133 0 114 138 0 108 144 0 103 149 0 98 154 0 92 160 0 87 165 0 82 170 0 76 176 0 71 181 0 66 186 0 60 192 0 55 197 0 50 202 0 44 208 0 39 213 0 34 216 3 22 169 62 9 94 149 1 14 239 1 14 239 9 94 149 22 169 62 34 216 3 39 213 0 44 208 0 50 202 0 55 197 0 60 192 0 66 186 0 71 181 0 76 176 0 82 170 0 87 165 0 92 160 0 98 154 0 103 149 0 108 144 0 114 138 0 119 133 0 124 128 0 130 122 0 135 117 0 140 112 0 145 107 0 151 101 0 156 96 0 161 91 0 167 85 0 172 80 0 177 75 0 183 69 0 
190 62 0 185 67 0 179 73 0 174 78 0 169 83 0 163 89 0 158 94 0 153 99 0 147 105 0 142 110 0 137 115 0 131 121 0 126 126 0 121 131 0 115 137 0 110 142 0 105 147 0 99 153 0 94 158 0 89 163 0 83 169 0 78 174 0 73 179 0 67 185 0 62 190 0 57 195 0 51 201 0 46 206 0 41 211 0 34 211 7 22 162 69 10 90 154 0 10 243 0 10 243 10 90 154 22 162 69 34 211 7 41 211 0 46 206 0 51 201 0 57 195 0 62 190 0 67 185 0 73 179 0 78 174 0 83 169 0 89 163 0 94 158 0 99 153 0 105 147 0 110 142 0 115 137 0 121 131 0 126 126 0 131 121 0 137 115 0 142 110 0 147 105 0 153 99 0 158 94 0 163 89 0 169 83 0 174 78 0 179 73 0 185 67 0 
179 73 0 174 78 0 169 83 0 164 88 0 159 93 0 154 98 0 150 102 0 145 107 0 140 112 0 135 117 0 130 122 0 125 127 0 120 132 0 115 137 0 110 142 0 105 147 0 100 152 0 95 157 0 90 162 0 85 167 0 80 172 0 75 177 0 70 182 0 65 187 0 60 192 0 55 197 0 50 202 0 45 207 0 40 212 0 32 197 23 20 144 88 9 79 166 0 6 247 0 6 247 9 79 166 20 144 88 32 197 23 40 212 0 45 207 0 50 202 0 55 197 0 60 192 0 65 187 0 70 182 0 75 177 0 80 172 0 85 167 0 90 162 0 95 157 0 100 152 0 105 147 0 110 142 0 115 137 0 120 132 0 125 127 0 130 122 0 135 117 0 140 112 0 145 107 0 150 102 0 154 98 0 159 93 0 164 88 0 169 83 0 174 78 0 
160 92 0 155 97 0 151 101 0 147 105 0 143 109 0 138 114 0 134 118 0 130 122 0 125 127 0 121 131 0 117 135 0 112 140 0 108 144 0 104 148 0 99 153 0 95 157 0 91 161 0 86 166 0 82 170 0 78 174 0 74 178 0 69 183 0 65 187 0 61 191 0 56 196 0 52 200 0 48 204 0 43 209 0 38 206 8 28 171 54 17 122 114 7 65 181 0 2 252 0 2 252 7 65 181 17 122 114 28 171 53 38 207 8 43 209 0 48 204 0 52 200 0 56 196 0 61 191 0 65 187 0 69 183 0 74 178 0 78 174 0 82 170 0 86 166 0 91 161 0 95 157 0 99 153 0 104 148 0 108 144 0 112 140 0 117 135 0 121 131 0 125 127 0 130 122 0 134 118 0 138 114 0 143 109 0 147 105 0 151 101 0 155 97 0 
138 114 0 135 117 0 131 121 0 128 124 0 124 128 0 120 132 0 117 135 0 113 139 0 110 142 0 106 146 0 102 150 0 99 153 0 95 157 0 91 161 0 88 164 0 84 168 0 81 171 0 77 175 0 73 179 0 70 182 0 66 186 0 63 189 0 59 193 0 55 197 0 52 200 0 48 204 0 45 207 1 40 203 10 31 179 42 23 144 86 14 101 139 6 52 195 0 0 255 0 0 254 6 52 195 14 101 138 23 144 86 31 180 42 40 203 10 45 207 1 48 204 0 52 200 0 55 197 0 59 193 0 63 189 0 66 186 0 70 182 0 73 179 0 77 175 0 81 171 0 84 168 0 88 164 0 91 161 0 95 157 0 99 153 0 102 150 0 106 146 0 110 142 0 113 139 0 117 135 0 120 132 0 124 128 0 128 124 0 131 121 0 135 117 0 
123 129 0 120 132 0 116 136 0 113 139 0 110 142 0 107 145 0 104 148 0 101 151 0 98 154 0 95 157 0 92 160 1 89 163 1 86 166 1 83 168 1 79 172 1 76 175 2 73 177 2 70 180 3 66 182 4 63 183 6 59 185 8 56 186 11 53 187 13 49 188 15 46 189 18 42 189 22 39 186 28 33 179 41 27 159 68 19 127 107 12 88 153 5 46 203 0 0 254 0 0 254 5 46 202 12 88 153 19 127 106 27 159 67 33 179 40 39 187 27 43 189 20 46 190 17 49 189 14 53 188 12 56 187 10 60 185 8 63 184 6 66 182 4 70 180 3 73 178 2 76 175 2 79 172 1 83 168 1 86 166 1 89 163 1 92 160 1 95 157 0 98 154 0 101 151 0 104 148 0 107 145 0 110 142 0 113 139 0 116 136 0 120 132 0 
118 134 0 114 136 2 111 138 4 107 140 5 103 142 7 101 143 9 97 145 11 93 147 13 90 148 14 86 150 16 83 152 18 80 153 19 76 155 21 73 157 22 70 159 24 68 160 25 65 162 26 62 164 27 59 166 27 57 169 27 54 172 26 52 176 25 49 179 25 46 182 24 45 184 24 42 186 24 39 186 28 34 180 39 28 161 64 20 128 105 12 89 151 6 47 200 0 4 250 0 4 250 6 47 200 12 89 151 20 128 104 28 161 64 34 181 38 39 187 27 42 187 23 45 185 23 47 183 23 49 179 24 52 176 25 54 173 25 57 170 26 60 167 26 62 165 25 65 163 25 68 161 23 71 160 22 74 158 21 77 156 19 80 155 18 84 153 16 87 151 14 91 149 12 94 148 11 98 146 9 101 144 7 104 143 5 108 141 4 111 139 2 115 137 0 
127 125 0 123 129 0 120 132 0 117 135 0 114 138 0 111 141 0 108 144 0 105 147 0 102 150 0 99 153 0 95 157 0 92 160 0 89 163 0 86 166 0 83 169 0 80 172 0 77 175 0 74 178 0 71 181 0 67 185 0 64 188 0 61 191 0 58 194 0 55 197 1 52 200 1 49 203 1 46 205 1 43 207 2 35 191 26 25 150 78 16 104 133 8 57 188 1 10 243 1 10 243 8 57 188 16 104 133 25 150 78 35 192 26 43 207 2 46 205 1 49 203 1 52 200 1 55 197 0 58 194 0 61 191 0 64 188 0 67 185 0 71 181 0 74 178 0 77 175 0 80 172 0 83 169 0 86 166 0 89 163 0 92 160 0 95 157 0 99 153 0 102 150 0 105 147 0 108 144 0 111 141 0 114 138 0 117 135 0 120 132 0 123 129 0 
146 106 0 142 110 0 139 113 0 135 117 0 131 121 0 128 124 0 124 128 0 120 132 0 117 135 0 113 139 0 109 143 0 106 146 0 102 150 0 98 154 0 95 157 0 91 161 0 87 165 0 84 168 0 80 172 0 76 176 0 73 179 0 69 183 0 65 187 0 62 190 0 58 194 0 54 198 0 51 201 0 47 205 0 43 209 0 35 182 37 21 128 104 10 73 170 2 17 235 2 17 235 10 73 170 21 128 104 35 182 36 43 209 0 47 205 0 51 201 0 54 198 0 58 194 0 62 190 0 65 187 0 69 183 0 73 179 0 76 176 0 80 172 0 84 168 0 87 165 0 91 161 0 95 157 0 98 154 0 102 150 0 106 146 0 109 143 0 113 139 0 117 135 0 120 132 0 124 128 0 128 124 0 131 121 0 135 117 0 139 113 0 142 110 0 
170 82 0 166 86 0 162 90 0 157 95 0 153 99 0 149 103 0 144 108 0 140 112 0 135 117 0 131 121 0 127 125 0 122 130 0 118 134 0 114 138 0 109 143 0 105 147 0 100 152 0 96 156 0 92 160 0 87 165 0 83 169 0 79 173 0 74 178 0 70 182 0 65 187 0 61 191 0 57 195 0 52 200 0 48 204 0 44 207 2 28 151 74 14 88 152 3 23 228 3 23 228 14 88 152 28 151 74 44 207 2 48 204 0 52 200 0 57 195 0 61 191 0 65 187 0 70 182 0 74 178 0 79 173 0 83 169 0 87 165 0 92 160 0 96 156 0 100 152 0 105 147 0 109 143 0 114 138 0 118 134 0 122 130 0 127 125 0 131 121 0 135 117 0 140 112 0 144 108 0 149 103 0 153 99 0 157 95 0 162 90 0 166 86 0 
192 60 0 187 65 0 182 70 0 177 75 0 172 80 0 167 85 0 162 90 0 157 95 0 152 100 0 147 105 0 142 110 0 137 115 0 132 120 0 127 125 0 122 130 0 117 135 0 112 140 0 107 145 0 102 150 0 97 155 0 92 160 0 87 165 0 82 170 0 77 175 0 72 180 0 67 185 0 62 190 0 57 195 0 52 200 0 47 205 0 34 167 52 17 99 138 4 26 223 4 26 223 17 99 138 34 167 52 47 205 0 52 200 0 57 195 0 62 190 0 67 185 0 72 180 0 77 175 0 82 170 0 87 165 0 92 160 0 97 155 0 102 150 0 107 145 0 112 140 0 117 135 0 122 130 0 127 125 0 132 120 0 137 115 0 142 110 0 147 105 0 152 100 0 157 95 0 162 90 0 167 85 0 172 80 0 177 75 0 182 70 0 187 65 0 
205 47 0 200 52 0 194 58 0 189 63 0 184 68 0 178 74 0 173 79 0 167 85 0 162 90 0 157 95 0 151 101 0 146 106 0 141 111 0 135 117 0 130 122 0 125 127 0 119 133 0 114 138 0 109 143 0 103 149 0 98 154 0 93 159 0 87 165 0 82 170 0 77 175 0 71 181 0 66 186 0 61 191 0 55 197 0 50 202 0 37 171 44 19 103 132 4 27 222 4 27 222 19 103 132 37 171 44 50 202 0 55 197 0 61 191 0 66 186 0 71 181 0 77 175 0 82 170 0 87 165 0 93 159 0 98 154 0 103 149 0 109 143 0 114 138 0 119 133 0 125 127 0 130 122 0 135 117 0 141 111 0 146 106 0 151 101 0 157 95 0 162 90 0 167 85 0 173 79 0 178 74 0 184 68 0 189 63 0 194 58 0 200 52 0 
205 47 0 199 53 0 194 58 0 189 63 0 184 68 0 178 74 0 173 79 0 168 84 0 162 90 0 157 95 0 152 100 0 146 106 0 141 111 0 136 116 0 131 121 0 125 127 0 120 132 0 115 137 0 109 143 0 104 148 0 99 153 0 93 159 0 88 164 0 83 169 0 78 174 0 72 180 0 67 185 0 62 190 0 56 196 0 51 200 2 37 164 51 19 99 135 4 26 223 4 26 223 19 99 135 37 164 51 51 200 2 56 196 0 62 190 0 67 185 0 72 180 0 78 174 0 83 169 0 88 164 0 93 159 0 99 153 0 104 148 0 109 143 0 115 137 0 120 132 0 125 127 0 131 121 0 136 116 0 141 111 0 146 106 0 152 100 0 157 95 0 162 90 0 168 84 0 173 79 0 178 74 0 184 68 0 189 63 0 194 58 0 199 53 0 
192 60 0 187 65 0 182 70 0 178 74 0 173 79 0 168 84 0 163 89 0 158 94 0 153 99 0 148 104 0 143 109 0 139 113 0 134 118 0 129 123 0 124 128 0 119 133 0 114 138 0 109 143 0 105 147 0 100 152 0 95 157 0 90 162 0 85 167 0 80 172 0 75 177 0 71 181 0 66 186 0 61 191 0 56 196 0 49 191 13 33 149 70 17 90 146 4 24 226 4 24 226 17 90 146 33 149 70 49 191 12 56 196 0 61 191 0 66 186 0 71 181 0 75 177 0 80 172 0 85 167 0 90 162 0 95 157 0 100 152 0 105 147 0 109 143 0 114 138 0 119 133 0 124 128 0 129 123 0 134 118 0 139 113 0 143 109 0 148 104 0 153 99 0 158 94 0 163 89 0 168 84 0 173 79 0 178 74 0 182 70 0 187 65 0 
172 80 0 168 84 0 163 89 0 159 93 0 155 97 0 151 101 0 147 105 0 142 110 0 138 114 0 134 118 0 130 122 0 126 126 0 121 131 0 117 135 0 113 139 0 109 143 0 105 147 0 101 151 0 96 156 0 92 160 0 88 164 0 84 168 0 80 172 0 75 177 0 71 181 0 67 185 0 63 189 0 59 193 0 54 197 2 43 171 39 29 129 95 15 78 160 3 21 229 3 21 229 15 78 160 29 129 95 43 171 38 54 197 2 59 193 0 63 189 0 67 185 0 71 181 0 75 177 0 80 172 0 84 168 0 88 164 0 92 160 0 96 156 0 101 151 0 105 147 0 109 143 0 113 139 0 117 135 0 121 131 0 126 126 0 130 122 0 134 118 0 138 114 0 142 110 0 147 105 0 151 101 0 155 97 0 159 93 0 163 89 0 168 84 0 
151 101 0 147 105 0 144 108 0 140 112 0 137 115 0 133 119 0 130 122 0 126 126 0 123 129 0 119 133 0 116 136 0 112 140 0 109 143 0 105 147 0 102 150 0 98 154 0 95 157 0 91 161 0 88 164 0 84 168 0 81 171 0 77 175 0 74 178 0 70 182 0 67 185 0 63 189 1 60 191 1 55 190 8 47 174 31 36 148 69 25 111 117 13 68 172 3 21 229 3 21 229 13 68 172 25 111 117 36 148 68 47 175 31 55 190 8 60 191 1 63 189 1 67 185 0 70 182 0 74 178 0 77 175 0 81 171 0 84 168 0 88 164 0 91 161 0 95 157 0 98 154 0 102 150 0 105 147 0 109 143 0 112 140 0 116 136 0 119 133 0 123 129 0 126 126 0 130 122 0 133 119 0 137 115 0 140 112 0 144 108 0 147 105 0 
137 115 0 134 118 0 131 121 0 128 124 1 125 127 1 122 130 1 119 133 1 115 137 1 112 139 2 108 142 2 105 145 2 102 148 3 99 150 3 96 153 4 92 155 5 89 157 7 85 159 9 82 160 10 78 162 12 75 164 14 72 165 16 68 167 17 65 168 19 62 170 21 59 171 23 55 172 25 52 172 28 48 170 35 42 159 52 33 135 85 23 102 128 13 64 176 4 23 227 4 23 227 13 64 176 23 102 128 33 136 84 42 160 51 48 171 34 52 173 27 56 173 24 59 172 22 62 170 20 65 169 18 69 167 17 72 166 15 75 164 13 79 163 11 82 161 9 86 159 8 89 157 6 93 155 5 96 153 4 99 150 3 102 148 2 105 145 2 109 142 2 112 139 1 115 137 1 119 133 1 122 130 1 125 127 1 128 124 0 131 121 0 134 118 0 
134 118 0 130 120 2 127 123 3 123 125 5 120 126 7 116 128 8 113 130 10 109 132 12 106 134 13 102 136 15 99 138 16 95 140 17 92 142 18 89 144 19 87 146 19 84 149 20 81 151 20 79 154 20 76 157 20 73 160 19 71 163 19 68 166 19 65 169 19 62 172 19 61 173 18 58 176 19 55 178 20 51 177 25 44 166 42 35 141 76 24 107 122 14 68 171 5 28 220 5 28 220 14 68 171 25 107 122 35 142 76 45 167 41 51 177 24 55 179 19 58 177 18 61 174 18 63 172 18 65 169 18 68 166 18 71 163 18 74 161 19 76 158 19 79 155 19 82 152 19 85 149 19 87 147 18 90 145 18 93 143 17 96 141 16 99 139 14 103 137 13 106 135 11 110 133 10 114 131 8 117 129 6 121 127 5 124 126 3 127 123 2 131 121 0 
145 107 0 142 110 0 138 114 0 135 117 0 132 120 0 129 123 0 126 126 0 123 129 0 119 133 0 116 136 0 113 139 0 110 142 0 107 145 0 103 149 0 100 152 0 97 155 0 94 158 0 91 161 0 87 165 0 84 168 0 81 171 0 78 174 0 75 177 0 72 180 0 68 184 0 65 187 0 62 190 0 59 193 1 56 193 3 44 166 43 30 124 99 18 80 156 7 35 211 7 35 211 18 80 156 30 124 99 44 167 42 56 194 3 59 193 1 62 190 0 65 187 0 68 184 0 72 180 0 75 177 0 78 174 0 81 171 0 84 168 0 87 165 0 91 161 0 94 158 0 97 155 0 100 152 0 103 149 0 107 145 0 110 142 0 113 139 0 116 136 0 119 133 0 123 129 0 126 126 0 129 123 0 132 120 0 135 117 0 138 114 0 142 110 0 
166 86 0 162 90 0 158 94 0 154 98 0 150 102 0 147 105 0 143 109 0 139 113 0 135 117 0 132 120 0 128 124 0 124 128 0 120 132 0 116 136 0 113 139 0 109 143 0 105 147 0 101 151 0 98 154 0 94 158 0 90 162 0 86 166 0 82 170 0 79 173 0 75 177 0 71 181 0 67 185 0 64 188 0 60 192 0 56 194 3 38 147 68 22 95 136 9 42 202 9 42 202 22 95 136 38 147 68 56 194 3 60 192 0 64 188 0 67 185 0 71 181 0 75 177 0 79 173 0 82 170 0 86 166 0 90 162 0 94 158 0 98 154 0 101 151 0 105 147 0 109 143 0 113 139 0 116 136 0 120 132 0 124 128 0 128 124 0 132 120 0 135 117 0 139 113 0 143 109 0 147 105 0 150 102 0 154 98 0 158 94 0 162 90 0 
190 62 0 186 66 0 181 71 0 177 75 0 172 80 0 168 84 0 163 89 0 159 93 0 154 98 0 150 102 0 145 107 0 141 111 0 136 116 0 132 120 0 127 125 0 123 129 0 118 134 0 114 138 0 109 143 0 105 147 0 100 152 0 96 156 0 91 161 0 87 165 0 82 170 0 78 174 0 73 179 0 69 183 0 64 188 0 60 192 0 47 169 37 28 109 116 11 48 194 11 48 194 28 109 116 47 169 37 60 192 0 64 188 0 69 183 0 73 179 0 78 174 0 82 170 0 87 165 0 91 161 0 96 156 0 100 152 0 105 147 0 109 143 0 114 138 0 118 134 0 123 129 0 127 125 0 132 120 0 136 116 0 141 111 0 145 107 0 150 102 0 154 98 0 159 93 0 163 89 0 168 84 0 172 80 0 177 75 0 181 71 0 186 66 0 
211 41 0 206 46 0 201 51 0 196 56 0 190 62 0 185 67 0 180 72 0 175 77 0 170 82 0 165 87 0 160 92 0 155 97 0 150 102 0 145 107 0 140 112 0 135 117 0 129 123 0 124 128 0 119 133 0 114 138 0 109 143 0 104 148 0 99 153 0 94 158 0 89 163 0 84 168 0 79 173 0 74 178 0 69 183 0 63 189 0 54 181 17 32 119 103 12 52 190 12 52 190 32 119 102 54 181 17 63 189 0 69 183 0 74 178 0 79 173 0 84 168 0 89 163 0 94 158 0 99 153 0 104 148 0 109 143 0 114 138 0 119 133 0 124 128 0 129 123 0 135 117 0 140 112 0 145 107 0 150 102 0 155 97 0 160 92 0 165 87 0 170 82 0 175 77 0 180 72 0 185 67 0 190 62 0 196 56 0 201 51 0 206 46 0 
221 31 0 216 36 0 211 41 0 205 47 0 200 52 0 195 57 0 189 63 0 184 68 0 179 73 0 173 79 0 168 84 0 162 90 0 157 95 0 152 100 0 146 106 0 141 111 0 136 116 0 130 122 0 125 127 0 120 132 0 114 138 0 109 143 0 103 149 0 98 154 0 93 159 0 87 165 0 82 170 0 77 175 0 71 181 0 66 186 0 57 180 15 34 121 98 13 53 188 13 53 188 34 121 98 57 181 15 66 186 0 71 181 0 77 175 0 82 170 0 87 165 0 93 159 0 98 154 0 103 149 0 109 143 0 114 138 0 120 132 0 125 127 0 130 122 0 136 116 0 141 111 0 146 106 0 152 100 0 157 95 0 162 90 0 168 84 0 173 79 0 179 73 0 184 68 0 189 63 0 195 57 0 200 52 0 205 47 0 211 41 0 216 36 0 
219 33 0 214 38 0 209 43 0 203 49 0 198 54 0 193 59 0 188 64 0 182 70 0 177 75 0 172 80 0 167 85 0 161 91 0 156 96 0 151 101 0 146 106 0 140 112 0 135 117 0 130 122 0 125 127 0 119 133 0 114 138 0 109 143 0 104 148 0 98 154 0 93 159 0 88 164 0 83 169 0 77 175 0 72 180 0 67 185 0 57 172 24 34 117 102 13 52 189 13 52 189 34 118 102 57 172 24 67 185 0 72 180 0 77 175 0 83 169 0 88 164 0 93 159 0 98 154 0 104 148 0 109 143 0 114 138 0 119 133 0 125 127 0 130 122 0 135 117 0 140 112 0 146 106 0 151 101 0 156 96 0 161 91 0 167 85 0 172 80 0 177 75 0 182 70 0 188 64 0 193 59 0 198 54 0 203 49 0 209 43 0 214 38 0 
205 47 0 200 52 0 195 57 0 190 62 0 186 66 0 181 71 0 176 76 0 171 81 0 167 85 0 162 90 0 157 95 0 152 100 0 148 104 0 143 109 0 138 114 0 133 119 0 129 123 0 124 128 0 119 133 0 114 138 0 110 142 0 105 147 0 100 152 0 95 157 0 90 162 0 86 166 0 81 171 0 76 176 0 71 181 0 67 184 1 52 159 42 32 108 113 13 50 191 13 50 191 32 108 113 52 159 41 67 184 1 71 181 0 76 176 0 81 171 0 86 166 0 90 162 0 95 157 0 100 152 0 105 147 0 110 142 0 114 138 0 119 133 0 124 128 0 129 123 0 133 119 0 138 114 0 143 109 0 148 104 0 152 100 0 157 95 0 162 90 0 167 85 0 171 81 0 176 76 0 181 71 0 186 66 0 190 62 0 195 57 0 200 52 0 
184 68 0 180 72 0 176 76 0 172 80 0 168 84 0 163 89 0 159 93 0 155 97 0 151 101 0 147 105 0 143 109 0 139 113 0 135 117 0 131 121 0 127 125 0 123 129 0 119 133 0 115 137 0 111 141 0 106 146 0 102 150 0 98 154 0 94 158 0 90 162 0 86 166 0 82 170 0 78 174 0 74 178 0 70 182 0 61 172 20 46 141 66 29 98 126 13 48 192 13 48 192 29 98 126 46 141 65 61 172 19 70 182 0 74 178 0 78 174 0 82 170 0 86 166 0 90 162 0 94 158 0 98 154 0 102 150 0 106 146 0 111 141 0 115 137 0 119 133 0 123 129 0 127 125 0 131 121 0 135 117 0 139 113 0 143 109 0 147 105 0 151 101 0 155 97 0 159 93 0 163 89 0 168 84 0 172 80 0 176 76 0 180 72 0 
164 88 0 160 92 0 157 95 0 153 99 0 150 102 0 147 105 0 143 109 0 140 112 0 136 116 0 133 119 0 129 123 0 126 126 0 123 129 0 119 133 0 116 136 0 112 140 0 109 143 0 106 146 0 102 150 0 99 153 0 95 157 0 92 160 0 89 163 0 85 167 1 82 170 1 78 173 1 74 175 3 70 174 8 63 169 20 54 154 45 41 127 86 27 90 136 13 48 192 13 48 192 27 90 136 41 127 85 54 154 45 63 170 20 70 175 7 75 175 3 78 173 1 82 170 1 85 167 0 89 163 0 92 160 0 95 157 0 99 153 0 102 150 0 106 146 0 109 143 0 112 140 0 116 136 0 119 133 0 123 129 0 126 126 0 129 123 0 133 119 0 136 116 0 140 112 0 143 109 0 147 105 0 150 102 0 153 99 0 157 95 0 160 92 0 
151 101 0 148 104 1 144 107 1 141 109 2 137 112 3 134 114 4 130 117 5 127 119 6 123 122 8 120 124 9 116 126 10 113 128 11 109 130 13 106 132 14 103 135 15 99 137 17 96 139 18 93 141 19 89 143 21 86 144 22 84 145 23 81 147 25 78 149 26 75 151 27 72 153 28 69 156 28 66 158 29 63 160 30 58 158 37 51 146 56 39 121 93 27 88 138 15 51 187 15 52 187 27 88 138 40 121 92 51 146 56 59 158 36 63 160 29 66 159 28 69 156 28 72 154 27 75 152 26 78 150 25 81 148 24 84 146 22 86 145 21 90 143 20 93 141 18 96 139 17 100 137 16 103 135 14 106 133 13 110 131 12 113 129 10 117 127 9 120 124 8 124 122 7 127 120 5 131 117 4 134 115 3 138 112 2 141 110 2 145 107 1 148 104 0 
151 101 0 148 104 1 144 106 2 141 109 3 137 112 4 134 114 5 130 117 5 127 119 6 124 122 7 121 125 7 119 126 8 115 129 8 112 132 9 109 134 9 106 137 10 103 140 10 100 142 10 97 145 11 94 147 11 91 150 11 88 153 12 85 155 12 82 158 12 80 160 13 77 162 13 74 165 13 71 168 13 68 170 14 64 169 20 56 156 41 43 129 81 29 94 129 17 58 179 17 58 179 30 94 129 43 129 81 56 157 40 64 169 19 69 171 13 72 169 12 75 166 12 77 163 12 80 160 12 82 159 12 85 156 11 88 153 11 91 151 11 94 148 10 97 145 10 100 143 9 103 140 9 106 137 9 110 135 8 113 132 8 116 129 7 119 127 7 121 125 6 124 122 6 128 120 5 131 117 5 134 115 4 138 112 3 141 109 2 145 107 1 148 104 0 
163 89 0 160 92 0 157 95 0 154 98 0 150 102 0 147 105 0 144 108 0 141 111 0 137 115 0 134 118 0 131 121 0 127 125 0 124 128 0 121 131 0 118 134 0 114 138 0 111 141 0 108 144 0 105 147 0 101 151 0 98 154 0 95 157 0 92 160 0 88 164 0 85 167 0 82 170 0 78 174 0 75 177 0 72 180 0 68 180 5 52 148 53 35 107 111 20 65 168 20 65 168 35 107 111 52 148 53 68 180 4 72 180 0 75 177 0 78 174 0 82 170 0 85 167 0 88 164 0 92 160 0 95 157 0 98 154 0 101 151 0 105 147 0 108 144 0 111 141 0 114 138 0 118 134 0 121 131 0 124 128 0 127 125 0 131 121 0 134 118 0 137 115 0 141 111 0 144 108 0 147 105 0 150 102 0 154 98 0 157 95 0 160 92 0 
185 67 0 181 71 0 177 75 0 174 78 0 170 82 0 166 86 0 162 90 0 158 94 0 154 98 0 150 102 0 146 106 0 142 110 0 139 113 0 135 117 0 131 121 0 127 125 0 123 129 0 119 133 0 115 137 0 111 141 0 107 145 0 103 149 0 100 152 0 96 156 0 92 160 0 88 164 0 84 168 0 80 172 0 76 176 0 72 180 0 63 170 20 42 121 89 23 72 158 23 72 158 42 121 89 63 170 20 72 180 0 76 176 0 80 172 0 84 168 0 88 164 0 92 160 0 96 156 0 100 152 0 103 149 0 107 145 0 111 141 0 115 137 0 119 133 0 123 129 0 127 125 0 131 121 0 135 117 0 139 113 0 142 110 0 146 106 0 150 102 0 154 98 0 158 94 0 162 90 0 166 86 0 170 82 0 174 78 0 177 75 0 181 71 0 
210 42 0 205 47 0 200 52 0 196 56 0 191 61 0 187 65 0 182 70 0 177 75 0 173 79 0 168 84 0 164 88 0 159 93 0 154 98 0 150 102 0 145 107 0 141 111 0 136 116 0 131 121 0 127 125 0 122 130 0 118 134 0 113 139 0 108 144 0 104 148 0 99 153 0 95 157 0 90 162 0 85 167 0 81 171 0 76 176 0 72 179 1 49 134 70 25 78 150 25 78 150 49 134 70 72 179 1 76 176 0 81 171 0 85 167 0 90 162 0 95 157 0 99 153 0 104 148 0 108 144 0 113 139 0 118 134 0 122 130 0 127 125 0 131 121 0 136 116 0 141 111 0 145 107 0 150 102 0 154 98 0 159 93 0 164 88 0 168 84 0 173 79 0 177 75 0 182 70 0 187 65 0 191 61 0 196 56 0 200 52 0 205 47 0 
229 23 0 224 28 0 219 33 0 214 38 0 208 44 0 203 49 0 198 54 0 193 59 0 188 64 0 183 69 0 178 74 0 172 80 0 167 85 0 162 90 0 157 95 0 152 100 0 147 105 0 141 111 0 136 116 0 131 121 0 126 126 0 121 131 0 116 136 0 111 141 0 105 147 0 100 152 0 95 157 0 90 162 0 85 167 0 80 172 0 74 178 0 54 142 57 27 81 145 27 81 145 54 142 57 74 178 0 80 172 0 85 167 0 90 162 0 95 157 0 100 152 0 105 147 0 111 141 0 116 136 0 121 131 0 126 126 0 131 121 0 136 116 0 141 111 0 147 105 0 152 100 0 157 95 0 162 90 0 167 85 0 172 80 0 178 74 0 183 69 0 188 64 0 193 59 0 198 54 0 203 49 0 208 44 0 214 38 0 219 33 0 224 28 0 
238 14 0 232 20 0 227 25 0 222 30 0 216 36 0 211 41 0 205 47 0 200 52 0 195 57 0 189 63 0 184 68 0 179 73 0 173 79 0 168 84 0 162 90 0 157 95 0 152 100 0 146 106 0 141 111 0 136 116 0 130 122 0 125 127 0 119 133 0 114 138 0 109 143 0 103 149 0 98 154 0 93 159 0 87 165 0 82 170 0 76 176 1 56 143 53 29 81 143 29 81 143 56 143 53 76 176 1 82 170 0 87 165 0 93 159 0 98 154 0 103 149 0 109 143 0 114 138 0 119 133 0 125 127 0 130 122 0 136 116 0 141 111 0 146 106 0 152 100 0 157 95 0 162 90 0 168 84 0 173 79 0 179 73 0 184 68 0 189 63 0 195 57 0 200 52 0 205 47 0 211 41 0 216 36 0 222 30 0 227 25 0 232 20 0 
233 19 0 228 24 0 223 29 0 218 34 0 212 40 0 207 45 0 202 50 0 197 55 0 192 60 0 186 66 0 181 71 0 176 76 0 171 81 0 166 86 0 160 92 0 155 97 0 150 102 0 145 107 0 140 112 0 134 118 0 129 123 0 124 128 0 119 133 0 114 138 0 109 143 0 103 149 0 98 154 0 93 159 0 88 164 0 83 169 0 76 173 3 56 139 59 29 81 143 29 81 143 56 139 59 76 173 3 83 169 0 88 164 0 93 159 0 98 154 0 103 149 0 109 143 0 114 138 0 119 133 0 124 128 0 129 123 0 134 118 0 140 112 0 145 107 0 150 102 0 155 97 0 160 92 0 166 86 0 171 81 0 176 76 0 181 71 0 186 66 0 192 60 0 197 55 0 202 50 0 207 45 0 212 40 0 218 34 0 223 29 0 228 24 0 
217 35 0 213 39 0 208 44 0 203 49 0 199 53 0 194 58 0 189 63 0 185 67 0 180 72 0 175 77 0 171 81 0 166 86 0 161 91 0 157 95 0 152 100 0 147 105 0 143 109 0 138 114 0 133 119 0 129 123 0 124 128 0 119 133 0 115 137 0 110 142 0 105 147 0 101 151 0 96 156 0 92 160 0 87 165 0 82 170 0 74 165 13 53 130 70 29 79 145 29 79 145 53 130 70 74 165 13 82 170 0 87 165 0 92 160 0 96 156 0 101 151 0 105 147 0 110 142 0 115 137 0 119 133 0 124 128 0 129 123 0 133 119 0 138 114 0 143 109 0 147 105 0 152 100 0 157 95 0 161 91 0 166 86 0 171 81 0 175 77 0 180 72 0 185 67 0 189 63 0 194 58 0 199 53 0 203 49 0 208 44 0 213 39 0 
196 56 0 192 60 0 188 64 0 184 68 0 180 72 0 176 76 0 172 80 0 168 84 0 164 88 0 160 92 0 156 96 0 152 100 0 148 104 0 144 108 0 141 111 0 137 115 0 133 119 0 129 123 0 125 127 0 121 131 0 117 135 0 113 139 0 109 143 0 105 147 0 101 151 0 97 155 0 93 159 0 89 163 0 85 167 0 80 167 6 68 153 32 49 121 83 29 78 145 29 78 145 49 121 83 68 153 32 80 168 5 85 167 0 89 163 0 93 159 0 97 155 0 101 151 0 105 147 0 109 143 0 113 139 0 117 135 0 121 131 0 125 127 0 129 123 0 133 119 0 137 115 0 141 111 0 144 108 0 148 104 0 152 100 0 156 96 0 160 92 0 164 88 0 168 84 0 172 80 0 176 76 0 180 72 0 184 68 0 188 64 0 192 60 0 
176 76 0 173 79 0 170 82 0 166 86 0 163 89 0 160 92 0 157 95 0 153 99 0 150 102 0 147 105 0 143 109 0 140 112 0 137 115 0 133 119 0 130 122 0 127 125 0 123 129 0 120 132 0 117 135 0 114 138 0 110 142 0 107 145 1 104 148 1 100 151 1 97 154 2 93 156 4 88 158 7 83 158 11 79 157 17 72 154 26 62 141 49 48 114 91 31 80 143 31 80 143 48 114 91 62 141 49 72 155 26 79 158 16 84 158 11 88 158 7 93 156 4 97 154 2 100 151 1 104 148 1 107 145 1 110 142 0 114 138 0 117 135 0 120 132 0 123 129 0 127 125 0 130 122 0 133 119 0 137 115 0 140 112 0 143 109 0 147 105 0 150 102 0 153 99 0 157 95 0 160 92 0 163 89 0 166 86 0 170 82 0 173 79 0 
166 86 0 162 89 2 158 91 3 154 94 5 150 96 6 146 98 8 143 100 10 139 102 11 135 105 13 131 107 15 127 109 16 124 111 18 120 113 20 118 114 21 114 116 23 111 118 24 107 120 25 104 122 27 101 124 28 98 126 29 95 128 30 92 130 31 89 132 31 86 135 32 83 138 32 81 141 30 79 145 29 77 148 27 74 151 28 71 149 33 62 139 52 49 115 89 33 84 136 34 84 136 49 115 89 63 139 51 71 150 32 74 151 27 77 149 27 79 145 28 82 141 30 84 138 31 86 136 31 89 133 30 92 131 29 95 129 29 98 127 28 101 125 26 105 123 25 108 121 24 111 119 22 115 117 21 118 115 19 121 114 18 125 112 16 128 110 15 132 107 13 136 105 11 140 103 10 144 101 8 147 99 6 151 96 5 155 94 3 159 92 2 163 89 0 
168 84 0 165 87 0 162 90 0 159 93 1 156 96 1 153 99 1 150 102 1 146 105 1 143 108 1 140 111 2 137 113 2 134 116 2 131 119 2 128 122 2 125 125 3 122 128 3 119 131 3 116 133 4 113 135 4 110 138 5 107 140 5 104 143 6 101 146 6 98 148 7 95 151 7 92 154 7 89 157 7 86 160 7 83 162 8 79 163 11 69 152 32 54 124 75 37 92 124 37 92 124 54 125 74 70 152 31 79 163 11 83 163 7 86 160 7 89 157 7 92 154 7 95 151 6 98 149 6 101 146 6 104 143 5 107 141 5 110 138 4 114 135 4 116 133 3 119 131 3 122 128 3 125 125 2 128 122 2 131 119 2 134 116 2 137 114 2 140 111 1 143 108 1 147 105 1 150 102 1 153 99 1 156 96 1 159 93 0 162 90 0 165 87 0 
182 70 0 179 73 0 176 76 0 172 80 0 169 83 0 165 87 0 162 90 0 159 93 0 155 97 0 152 100 0 149 103 0 145 107 0 142 110 0 139 113 0 135 117 0 132 120 0 129 123 0 125 127 0 122 130 0 118 134 0 115 137 0 112 140 0 108 144 0 105 147 0 102 150 0 98 154 0 95 157 0 92 160 0 88 164 0 85 167 0 81 168 3 62 139 52 42 100 110 43 100 110 62 139 52 81 168 3 85 167 0 88 164 0 92 160 0 95 157 0 98 154 0 102 150 0 105 147 0 108 144 0 112 140 0 115 137 0 118 134 0 122 130 0 125 127 0 129 123 0 132 120 0 135 117 0 139 113 0 142 110 0 145 107 0 149 103 0 152 100 0 155 97 0 159 93 0 162 90 0 165 87 0 169 83 0 172 80 0 176 76 0 179 73 0 
205 47 0 201 51 0 197 55 0 193 59 0 189 63 0 185 67 0 181 71 0 177 75 0 173 79 0 169 83 0 165 87 0 161 91 0 157 95 0 153 99 0 149 103 0 145 107 0 141 111 0 137 115 0 133 119 0 129 123 0 125 127 0 121 131 0 117 135 0 113 139 0 109 143 0 105 147 0 101 151 0 97 155 0 93 159 0 89 163 0 85 167 0 73 153 27 48 108 97 48 108 97 73 153 27 85 167 0 89 163 0 93 159 0 97 155 0 101 151 0 105 147 0 109 143 0 113 139 0 117 135 0 121 131 0 125 127 0 129 123 0 133 119 0 137 115 0 141 111 0 145 107 0 149 103 0 153 99 0 157 95 0 161 91 0 165 87 0 169 83 0 173 79 0 177 75 0 181 71 0 185 67 0 189 63 0 193 59 0 197 55 0 201 51 0 
229 23 0 224 28 0 220 32 0 215 37 0 210 42 0 206 46 0 201 51 0 196 56 0 191 61 0 187 65 0 182 70 0 177 75 0 173 79 0 168 84 0 163 89 0 158 94 0 154 98 0 149 103 0 144 108 0 140 112 0 135 117 0 130 122 0 125 127 0 121 131 0 116 136 0 111 141 0 107 145 0 102 150 0 97 155 0 93 159 0 88 164 0 81 164 8 51 113 88 51 113 88 81 164 8 88 164 0 93 159 0 97 155 0 102 150 0 107 145 0 111 141 0 116 136 0 121 131 0 125 127 0 130 122 0 135 117 0 140 112 0 144 108 0 149 103 0 154 98 0 158 94 0 163 89 0 168 84 0 173 79 0 177 75 0 182 70 0 187 65 0 191 61 0 196 56 0 201 51 0 206 46 0 210 42 0 215 37 0 220 32 0 224 28 0 
247 5 0 242 10 0 237 15 0 231 21 0 226 26 0 221 31 0 216 36 0 211 41 0 205 47 0 200 52 0 195 57 0 190 62 0 184 68 0 179 73 0 174 78 0 169 83 0 164 88 0 158 94 0 153 99 0 148 104 0 143 109 0 137 115 0 132 120 0 127 125 0 122 130 0 117 135 0 111 141 0 106 146 0 101 151 0 96 156 0 91 161 0 84 165 4 54 116 83 54 116 83 84 165 4 91 161 0 96 156 0 101 151 0 106 146 0 111 141 0 117 135 0 122 130 0 127 125 0 132 120 0 137 115 0 143 109 0 148 104 0 153 99 0 158 94 0 164 88 0 169 83 0 174 78 0 179 73 0 184 68 0 190 62 0 195 57 0 200 52 0 205 47 0 211 41 0 216 36 0 221 31 0 226 26 0 231 21 0 237 15 0 242 10 0 
254 0 0 248 4 0 243 9 0 237 15 0 232 20 0 227 25 0 221 31 0 216 36 0 211 41 0 205 47 0 200 52 0 194 58 0 189 63 0 184 68 0 178 74 0 173 79 0 168 84 0 162 90 0 157 95 0 151 101 0 146 106 0 141 111 0 135 117 0 130 122 0 125 127 0 119 133 0 114 138 0 108 144 0 103 149 0 98 154 0 92 160 0 86 162 5 56 116 80 56 116 80 86 162 4 92 160 0 98 154 0 103 149 0 108 144 0 114 138 0 119 133 0 125 127 0 130 122 0 135 117 0 141 111 0 146 106 0 151 101 0 157 95 0 162 90 0 168 84 0 173 79 0 178 74 0 184 68 0 189 63 0 194 58 0 200 52 0 205 47 0 211 41 0 216 36 0 221 31 0 227 25 0 232 20 0 237 15 0 243 9 0 248 4 0 
247 5 0 242 10 0 237 15 0 231 21 0 226 26 0 221 31 0 216 36 0 211 41 0 206 46 0 201 51 0 196 56 0 190 62 0 185 67 0 180 72 0 175 77 0 170 82 0 165 87 0 160 92 0 155 97 0 149 103 0 144 108 0 139 113 0 134 118 0 129 123 0 124 128 0 119 133 0 114 138 0 109 143 0 103 149 0 98 154 0 93 159 0 85 159 8 57 116 80 57 116 80 85 159 8 93 159 0 98 154 0 103 149 0 109 143 0 114 138 0 119 133 0 124 128 0 129 123 0 134 118 0 139 113 0 144 108 0 149 103 0 155 97 0 160 92 0 165 87 0 170 82 0 175 77 0 180 72 0 185 67 0 190 62 0 196 56 0 201 51 0 206 46 0 211 41 0 216 36 0 221 31 0 226 26 0 231 21 0 237 15 0 242 10 0 
230 22 0 225 27 0 220 32 0 216 36 0 211 41 0 207 45 0 202 50 0 198 54 0 193 59 0 189 63 0 184 68 0 180 72 0 175 77 0 170 82 0 166 86 0 161 91 0 157 95 0 152 100 0 148 104 0 143 109 0 139 113 0 134 118 0 130 122 0 125 127 0 120 132 0 116 136 0 111 141 0 107 145 0 102 150 0 98 154 0 93 159 0 84 153 16 58 115 80 58 115 80 84 153 16 93 159 0 98 154 0 102 150 0 107 145 0 111 141 0 116 136 0 120 132 0 125 127 0 130 122 0 134 118 0 139 113 0 143 109 0 148 104 0 152 100 0 157 95 0 161 91 0 166 86 0 170 82 0 175 77 0 180 72 0 184 68 0 189 63 0 193 59 0 198 54 0 202 50 0 207 45 0 211 41 0 216 36 0 220 32 0 225 27 0 
208 44 0 204 48 0 200 52 0 196 56 0 193 59 0 189 63 0 185 67 0 181 71 0 177 75 0 173 79 0 170 82 0 166 86 0 162 90 0 158 94 0 154 98 0 150 102 0 147 105 0 143 109 0 139 113 0 135 117 0 131 121 0 127 125 0 124 128 0 120 132 0 116 136 0 112 140 0 108 144 0 104 148 0 101 151 0 97 155 1 91 155 6 80 146 27 59 115 79 59 115 79 80 146 27 91 155 6 97 155 1 101 151 0 104 148 0 108 144 0 112 140 0 116 136 0 120 132 0 124 128 0 127 125 0 131 121 0 135 117 0 139 113 0 143 109 0 147 105 0 150 102 0 154 98 0 158 94 0 162 90 0 166 86 0 170 82 0 173 79 0 177 75 0 181 71 0 185 67 0 189 63 0 193 59 0 196 56 0 200 52 0 204 48 0 
190 62 0 186 66 0 183 69 0 180 72 0 177 75 0 173 79 0 170 82 0 167 85 0 164 88 0 161 91 0 157 95 0 154 98 0 151 101 0 148 104 0 144 108 0 141 111 0 138 114 0 135 117 0 131 121 0 128 124 1 125 127 1 122 130 1 119 133 1 114 136 2 111 139 3 107 141 5 103 142 7 98 144 10 94 146 12 91 147 15 86 148 19 78 141 34 61 118 74 61 118 74 78 141 33 87 148 18 91 147 14 95 146 12 99 145 9 104 142 7 107 141 4 111 139 2 115 136 2 119 133 1 122 130 1 125 127 1 128 124 1 131 121 0 135 117 0 138 114 0 141 111 0 144 108 0 148 104 0 151 101 0 154 98 0 157 95 0 161 91 0 164 88 0 167 85 0 170 82 0 173 79 0 177 75 0 180 72 0 183 69 0 186 66 0 
181 71 0 177 74 1 173 77 3 170 79 4 166 82 5 162 84 6 158 87 8 155 89 9 151 92 10 148 93 11 145 95 12 141 98 14 138 100 15 134 102 16 131 105 17 127 107 18 124 109 19 121 111 21 117 114 22 114 116 23 112 117 23 109 120 24 106 122 25 103 125 25 100 128 25 98 131 23 96 135 22 94 138 20 92 142 18 90 146 17 87 148 17 82 144 27 67 125 61 67 125 61 82 144 27 87 149 17 90 146 16 92 142 18 94 139 19 96 135 21 99 131 23 101 128 24 103 125 24 106 123 24 109 120 23 112 118 22 115 117 21 118 114 20 121 112 19 125 110 18 128 108 17 131 105 16 135 103 15 138 101 14 142 98 12 146 96 11 149 93 10 152 92 9 155 90 7 159 87 6 163 85 5 167 82 4 170 80 2 174 77 1 178 74 0 
185 67 0 182 70 0 179 73 0 176 76 0 173 79 0 170 82 0 167 85 0 164 88 0 161 91 0 158 94 0 155 97 0 152 100 0 149 103 0 146 106 0 143 109 0 140 112 0 137 115 0 134 118 0 131 121 0 128 124 0 125 127 0 122 130 0 119 133 0 116 136 0 113 139 0 110 142 1 107 145 1 104 148 1 101 151 1 98 154 1 95 157 1 91 158 3 76 139 38 76 139 38 91 158 3 95 157 1 98 154 1 101 151 1 104 148 1 107 145 1 110 142 0 113 139 0 116 136 0 119 133 0 122 130 0 125 127 0 128 124 0 131 121 0 134 118 0 137 115 0 140 112 0 143 109 0 146 106 0 149 103 0 152 100 0 155 97 0 158 94 0 161 91 0 164 88 0 167 85 0 170 82 0 173 79 0 176 76 0 179 73 0 182 70 0 
201 51 0 198 54 0 194 58 0 191 61 0 188 64 0 184 68 0 181 71 0 177 75 0 174 78 0 170 82 0 167 85 0 163 89 0 160 92 0 156 96 0 153 99 0 150 102 0 146 106 0 143 109 0 139 113 0 136 116 0 132 120 0 129 123 0 125 127 0 122 130 0 118 134 0 115 137 0 112 140 0 108 144 0 105 147 0 101 151 0 98 154 0 94 158 0 87 154 11 87 154 11 94 158 0 98 154 0 101 151 0 105 147 0 108 144 0 112 140 0 115 137 0 118 134 0 122 130 0 125 127 0 129 123 0 132 120 0 136 116 0 139 113 0 143 109 0 146 106 0 150 102 0 153 99 0 156 96 0 160 92 0 163 89 0 167 85 0 170 82 0 174 78 0 177 75 0 181 71 0 184 68 0 188 64 0 191 61 0 194 58 0 198 54 0 
